<svg width="761" height="761" viewBox="0 0 761 761" fill="none" xmlns="http://www.w3.org/2000/svg">
<path d="M207.026 497.546L201.04 497.954L201.515 504.925L194.532 505.401L194.94 511.387L201.924 510.911L202.399 517.882L208.385 517.474L207.91 510.503L214.893 510.026L214.485 504.04L207.501 504.517L207.026 497.546Z" fill="black"/>
<path d="M231.537 518.928L225.551 519.336L226.027 526.307L219.043 526.783L219.451 532.769L226.435 532.293L226.91 539.264L232.896 538.855L232.421 531.885L239.405 531.408L238.996 525.422L232.013 525.899L231.537 518.928Z" fill="black"/>
<path d="M185.644 522.057L179.658 522.466L180.133 529.436L173.15 529.913L173.558 535.899L180.542 535.422L181.017 542.393L187.003 541.985L186.528 535.014L193.512 534.538L193.103 528.552L186.12 529.028L185.644 522.057Z" fill="black"/>
<path d="M210.155 543.439L204.169 543.847L204.645 550.818L197.661 551.295L198.069 557.281L205.053 556.804L205.528 563.775L211.514 563.367L211.039 556.396L218.023 555.92L217.615 549.934L210.631 550.41L210.155 543.439Z" fill="black"/>
<path d="M249.79 448.523L243.804 448.931L244.279 455.902L237.295 456.378L237.703 462.364L244.687 461.888L245.163 468.859L251.149 468.45L250.673 461.48L257.657 461.003L257.249 455.017L250.265 455.494L249.79 448.523Z" fill="black"/>
<path d="M274.301 469.905L268.315 470.313L268.79 477.284L261.806 477.76L262.215 483.746L269.198 483.27L269.674 490.241L275.66 489.832L275.185 482.862L282.168 482.385L281.76 476.399L274.776 476.875L274.301 469.905Z" fill="black"/>
<path d="M228.408 473.034L222.422 473.443L222.897 480.413L215.913 480.89L216.322 486.876L223.305 486.399L223.781 493.37L229.767 492.962L229.291 485.991L236.275 485.515L235.867 479.529L228.883 480.005L228.408 473.034Z" fill="black"/>
<path d="M252.919 494.416L246.933 494.824L247.408 501.795L240.425 502.271L240.833 508.258L247.817 507.781L248.292 514.752L254.278 514.344L253.803 507.373L260.786 506.897L260.378 500.911L253.394 501.387L252.919 494.416Z" fill="black"/>
<path d="M158.003 454.782L152.016 455.19L152.492 462.161L145.508 462.637L145.916 468.623L152.9 468.147L153.375 475.118L159.362 474.71L158.886 467.739L165.87 467.263L165.462 461.277L158.478 461.753L158.003 454.782Z" fill="black"/>
<path d="M182.514 476.164L176.528 476.572L177.004 483.543L170.02 484.019L170.428 490.005L177.412 489.529L177.887 496.5L183.873 496.092L183.398 489.121L190.382 488.645L189.973 482.658L182.99 483.135L182.514 476.164Z" fill="black"/>
<path d="M136.621 479.294L130.635 479.702L131.11 486.673L124.126 487.149L124.534 493.135L131.518 492.659L131.994 499.63L137.98 499.221L137.504 492.251L144.488 491.774L144.08 485.788L137.096 486.264L136.621 479.294Z" fill="black"/>
<path d="M161.132 500.675L155.146 501.084L155.622 508.055L148.638 508.531L149.046 514.517L156.03 514.041L156.505 521.011L162.491 520.603L162.016 513.632L169 513.156L168.592 507.17L161.608 507.646L161.132 500.675Z" fill="black"/>
<path d="M200.767 405.759L194.781 406.167L195.256 413.138L188.272 413.614L188.68 419.6L195.664 419.124L196.14 426.095L202.126 425.687L201.65 418.716L208.634 418.24L208.226 412.254L201.242 412.73L200.767 405.759Z" fill="black"/>
<path d="M225.278 427.141L219.292 427.549L219.767 434.52L212.783 434.996L213.192 440.982L220.175 440.506L220.651 447.477L226.637 447.069L226.162 440.098L233.145 439.622L232.737 433.635L225.753 434.112L225.278 427.141Z" fill="black"/>
<path d="M179.385 430.271L173.399 430.679L173.874 437.65L166.89 438.126L167.299 444.112L174.282 443.636L174.758 450.606L180.744 450.198L180.268 443.227L187.252 442.751L186.844 436.765L179.86 437.241L179.385 430.271Z" fill="black"/>
<path d="M203.896 451.652L197.91 452.061L198.385 459.031L191.402 459.508L191.81 465.494L198.794 465.018L199.269 471.988L205.255 471.58L204.78 464.609L211.764 464.133L211.355 458.147L204.372 458.623L203.896 451.652Z" fill="black"/>
<path d="M292.553 399.5L286.567 399.908L287.043 406.879L280.059 407.355L280.467 413.341L287.451 412.865L287.926 419.836L293.912 419.427L293.437 412.457L300.421 411.98L300.013 405.994L293.029 406.47L292.553 399.5Z" fill="black"/>
<path d="M317.065 420.882L311.079 421.29L311.554 428.261L304.571 428.737L304.979 434.723L311.963 434.247L312.438 441.218L318.424 440.809L317.949 433.838L324.932 433.362L324.524 427.376L317.54 427.852L317.065 420.882Z" fill="black"/>
<path d="M271.172 424.011L265.185 424.419L265.661 431.39L258.677 431.867L259.085 437.853L266.069 437.376L266.544 444.347L272.53 443.939L272.055 436.968L279.039 436.492L278.631 430.506L271.647 430.982L271.172 424.011Z" fill="black"/>
<path d="M295.683 445.393L289.697 445.801L290.173 452.772L283.189 453.248L283.597 459.234L290.581 458.758L291.056 465.729L297.042 465.321L296.567 458.35L303.551 457.874L303.142 451.888L296.159 452.364L295.683 445.393Z" fill="black"/>
<path d="M335.317 350.477L329.331 350.885L329.806 357.856L322.823 358.332L323.231 364.318L330.215 363.842L330.69 370.813L336.676 370.404L336.201 363.434L343.184 362.957L342.776 356.971L335.792 357.447L335.317 350.477Z" fill="black"/>
<path d="M359.829 371.858L353.843 372.267L354.318 379.238L347.334 379.714L347.742 385.7L354.726 385.224L355.202 392.194L361.188 391.786L360.712 384.815L367.696 384.339L367.288 378.353L360.304 378.829L359.829 371.858Z" fill="black"/>
<path d="M313.935 374.988L307.949 375.396L308.424 382.367L301.441 382.843L301.849 388.83L308.833 388.353L309.308 395.324L315.294 394.916L314.819 387.945L321.803 387.469L321.394 381.483L314.411 381.959L313.935 374.988Z" fill="black"/>
<path d="M338.447 396.37L332.461 396.778L332.936 403.749L325.952 404.225L326.361 410.211L333.344 409.735L333.82 416.706L339.806 416.298L339.331 409.327L346.314 408.851L345.906 402.865L338.922 403.341L338.447 396.37Z" fill="black"/>
<path d="M243.53 356.736L237.544 357.144L238.02 364.115L231.036 364.591L231.444 370.577L238.428 370.101L238.903 377.072L244.889 376.664L244.414 369.693L251.398 369.217L250.99 363.23L244.006 363.707L243.53 356.736Z" fill="black"/>
<path d="M268.042 378.118L262.056 378.526L262.531 385.497L255.547 385.973L255.955 391.959L262.939 391.483L263.415 398.454L269.401 398.046L268.925 391.075L275.909 390.598L275.501 384.612L268.517 385.089L268.042 378.118Z" fill="black"/>
<path d="M222.149 381.247L216.162 381.656L216.638 388.627L209.654 389.103L210.062 395.089L217.046 394.613L217.521 401.583L223.508 401.175L223.032 394.204L230.016 393.728L229.608 387.742L222.624 388.218L222.149 381.247Z" fill="black"/>
<path d="M246.66 402.629L240.674 403.038L241.149 410.008L234.165 410.485L234.574 416.471L241.557 415.994L242.033 422.965L248.019 422.557L247.543 415.586L254.527 415.11L254.119 409.124L247.135 409.6L246.66 402.629Z" fill="black"/>
<path d="M286.294 307.713L280.308 308.121L280.783 315.092L273.8 315.568L274.208 321.554L281.192 321.078L281.667 328.049L287.653 327.641L287.178 320.67L294.161 320.194L293.753 314.207L286.769 314.684L286.294 307.713Z" fill="black"/>
<path d="M310.806 329.095L304.82 329.503L305.295 336.474L298.311 336.95L298.72 342.936L305.703 342.46L306.179 349.431L312.165 349.022L311.689 342.052L318.673 341.575L318.265 335.589L311.281 336.066L310.806 329.095Z" fill="black"/>
<path d="M264.912 332.224L258.926 332.633L259.402 339.603L252.418 340.08L252.826 346.066L259.81 345.59L260.285 352.56L266.271 352.152L265.796 345.181L272.78 344.705L272.371 338.719L265.388 339.195L264.912 332.224Z" fill="black"/>
<path d="M289.424 353.606L283.438 354.015L283.913 360.985L276.929 361.462L277.338 367.448L284.321 366.971L284.797 373.942L290.783 373.534L290.308 366.563L297.291 366.087L296.883 360.101L289.899 360.577L289.424 353.606Z" fill="black"/>
<path d="M108.98 412.018L102.994 412.427L103.469 419.397L96.4851 419.874L96.8933 425.86L103.877 425.383L104.352 432.354L110.339 431.946L109.863 424.975L116.847 424.499L116.439 418.513L109.455 418.989L108.98 412.018Z" fill="black"/>
<path d="M133.491 433.4L127.505 433.808L127.98 440.779L120.996 441.255L121.405 447.242L128.388 446.765L128.864 453.736L134.85 453.328L134.374 446.357L141.358 445.881L140.95 439.895L133.966 440.371L133.491 433.4Z" fill="black"/>
<path d="M87.5978 436.53L81.6117 436.938L82.0871 443.909L75.1033 444.385L75.5115 450.371L82.4953 449.895L82.9707 456.866L88.9568 456.458L88.4814 449.487L95.4652 449.01L95.057 443.024L88.0732 443.501L87.5978 436.53Z" fill="black"/>
<path d="M112.109 457.912L106.123 458.32L106.598 465.291L99.6145 465.767L100.023 471.753L107.007 471.277L107.482 478.248L113.468 477.839L112.993 470.869L119.976 470.392L119.568 464.406L112.584 464.883L112.109 457.912Z" fill="black"/>
<path d="M151.743 362.995L145.757 363.403L146.233 370.374L139.249 370.851L139.657 376.837L146.641 376.36L147.116 383.331L153.102 382.923L152.627 375.952L159.611 375.476L159.202 369.49L152.219 369.966L151.743 362.995Z" fill="black"/>
<path d="M176.255 384.377L170.268 384.785L170.744 391.756L163.76 392.232L164.168 398.218L171.152 397.742L171.627 404.713L177.613 404.305L177.138 397.334L184.122 396.858L183.714 390.872L176.73 391.348L176.255 384.377Z" fill="black"/>
<path d="M130.361 387.507L124.375 387.915L124.851 394.886L117.867 395.362L118.275 401.348L125.259 400.872L125.734 407.843L131.72 407.434L131.245 400.464L138.229 399.987L137.821 394.001L130.837 394.478L130.361 387.507Z" fill="black"/>
<path d="M154.873 408.889L148.887 409.297L149.362 416.268L142.378 416.744L142.786 422.73L149.77 422.254L150.246 429.225L156.232 428.816L155.756 421.846L162.74 421.369L162.332 415.383L155.348 415.859L154.873 408.889Z" fill="black"/>
<path d="M59.9562 369.255L53.9701 369.663L54.4455 376.634L47.4617 377.11L47.8699 383.096L54.8537 382.62L55.3291 389.59L61.3152 389.182L60.8398 382.211L67.8236 381.735L67.4154 375.749L60.4316 376.225L59.9562 369.255Z" fill="black"/>
<path d="M84.4679 390.636L78.4818 391.045L78.9572 398.015L71.9734 398.492L72.3816 404.478L79.3654 404.002L79.8408 410.972L85.8269 410.564L85.3515 403.593L92.3353 403.117L91.9271 397.131L84.9433 397.607L84.4679 390.636Z" fill="black"/>
<path d="M38.5744 393.766L32.5883 394.174L33.0636 401.145L26.0799 401.621L26.4881 407.607L33.4719 407.131L33.9472 414.102L39.9333 413.694L39.458 406.723L46.4417 406.247L46.0335 400.261L39.0497 400.737L38.5744 393.766Z" fill="black"/>
<path d="M63.0861 415.148L57.1 415.556L57.5754 422.527L50.5916 423.003L50.9998 428.989L57.9836 428.513L58.4589 435.484L64.445 435.076L63.9697 428.105L70.9535 427.629L70.5452 421.643L63.5615 422.119L63.0861 415.148Z" fill="black"/>
<path d="M102.72 320.231L96.7343 320.64L97.2096 327.611L90.2259 328.087L90.6341 334.073L97.6179 333.597L98.0932 340.567L104.079 340.159L103.604 333.188L110.588 332.712L110.18 326.726L103.196 327.202L102.72 320.231Z" fill="black"/>
<path d="M127.232 341.613L121.245 342.022L121.721 348.992L114.737 349.469L115.145 355.455L122.129 354.978L122.604 361.949L128.591 361.541L128.115 354.57L135.099 354.094L134.691 348.108L127.707 348.584L127.232 341.613Z" fill="black"/>
<path d="M81.3385 344.743L75.3524 345.151L75.8278 352.122L68.844 352.598L69.2522 358.584L76.236 358.108L76.7114 365.079L82.6975 364.671L82.2221 357.7L89.2059 357.224L88.7977 351.238L81.8139 351.714L81.3385 344.743Z" fill="black"/>
<path d="M105.85 366.125L99.8637 366.533L100.339 373.504L93.3553 373.98L93.7635 379.966L100.747 379.49L101.223 386.461L107.209 386.053L106.733 379.082L113.717 378.606L113.309 372.619L106.325 373.096L105.85 366.125Z" fill="black"/>
<path d="M194.507 313.972L188.521 314.38L188.996 321.351L182.012 321.827L182.421 327.814L189.404 327.337L189.88 334.308L195.866 333.9L195.391 326.929L202.374 326.453L201.966 320.467L194.982 320.943L194.507 313.972Z" fill="black"/>
<path d="M219.019 335.354L213.033 335.762L213.508 342.733L206.524 343.209L206.932 349.195L213.916 348.719L214.392 355.69L220.378 355.282L219.902 348.311L226.886 347.835L226.478 341.849L219.494 342.325L219.019 335.354Z" fill="black"/>
<path d="M173.125 338.484L167.139 338.892L167.614 345.863L160.631 346.339L161.039 352.325L168.023 351.849L168.498 358.82L174.484 358.411L174.009 351.441L180.993 350.964L180.584 344.978L173.601 345.455L173.125 338.484Z" fill="black"/>
<path d="M197.637 359.866L191.651 360.274L192.126 367.245L185.142 367.721L185.551 373.707L192.534 373.231L193.01 380.202L198.996 379.793L198.52 372.822L205.504 372.346L205.096 366.36L198.112 366.836L197.637 359.866Z" fill="black"/>
<path d="M237.271 264.949L231.285 265.357L231.76 272.328L224.776 272.804L225.184 278.79L232.168 278.314L232.644 285.285L238.63 284.877L238.154 277.906L245.138 277.43L244.73 271.444L237.746 271.92L237.271 264.949Z" fill="black"/>
<path d="M261.782 286.331L255.796 286.739L256.272 293.71L249.288 294.186L249.696 300.172L256.68 299.696L257.155 306.667L263.141 306.259L262.666 299.288L269.65 298.812L269.242 292.826L262.258 293.302L261.782 286.331Z" fill="black"/>
<path d="M215.889 289.461L209.903 289.869L210.378 296.84L203.394 297.316L203.803 303.302L210.786 302.826L211.262 309.797L217.248 309.388L216.772 302.418L223.756 301.941L223.348 295.955L216.364 296.431L215.889 289.461Z" fill="black"/>
<path d="M240.401 310.842L234.414 311.251L234.89 318.222L227.906 318.698L228.314 324.684L235.298 324.208L235.773 331.178L241.759 330.77L241.284 323.799L248.268 323.323L247.86 317.337L240.876 317.813L240.401 310.842Z" fill="black"/>
<path d="M145.484 271.208L139.498 271.617L139.973 278.587L132.99 279.064L133.398 285.05L140.382 284.574L140.857 291.544L146.843 291.136L146.368 284.165L153.351 283.689L152.943 277.703L145.959 278.179L145.484 271.208Z" fill="black"/>
<path d="M169.995 292.59L164.009 292.998L164.485 299.969L157.501 300.446L157.909 306.432L164.893 305.955L165.368 312.926L171.354 312.518L170.879 305.547L177.863 305.071L177.454 299.085L170.471 299.561L169.995 292.59Z" fill="black"/>
<path d="M124.102 295.72L118.116 296.128L118.591 303.099L111.608 303.575L112.016 309.561L119 309.085L119.475 316.056L125.461 315.648L124.986 308.677L131.97 308.201L131.561 302.214L124.578 302.691L124.102 295.72Z" fill="black"/>
<path d="M148.613 317.102L142.627 317.51L143.103 324.481L136.119 324.957L136.527 330.943L143.511 330.467L143.986 337.438L149.972 337.03L149.497 330.059L156.481 329.582L156.073 323.596L149.089 324.073L148.613 317.102Z" fill="black"/>
<path d="M188.248 222.185L182.262 222.594L182.737 229.564L175.753 230.041L176.161 236.027L183.145 235.55L183.621 242.521L189.607 242.113L189.131 235.142L196.115 234.666L195.707 228.68L188.723 229.156L188.248 222.185Z" fill="black"/>
<path d="M212.759 243.567L206.773 243.975L207.249 250.946L200.265 251.422L200.673 257.409L207.657 256.932L208.132 263.903L214.118 263.495L213.643 256.524L220.627 256.048L220.219 250.062L213.235 250.538L212.759 243.567Z" fill="black"/>
<path d="M166.866 246.697L160.88 247.105L161.355 254.076L154.371 254.552L154.78 260.538L161.763 260.062L162.239 267.033L168.225 266.625L167.749 259.654L174.733 259.178L174.325 253.191L167.341 253.668L166.866 246.697Z" fill="black"/>
<path d="M191.378 268.079L185.391 268.487L185.867 275.458L178.883 275.934L179.291 281.92L186.275 281.444L186.75 288.415L192.737 288.006L192.261 281.036L199.245 280.559L198.837 274.573L191.853 275.05L191.378 268.079Z" fill="black"/>
<path d="M378.081 301.454L372.095 301.862L372.57 308.833L365.586 309.309L365.994 315.295L372.978 314.819L373.454 321.789L379.44 321.381L378.964 314.41L385.948 313.934L385.54 307.948L378.556 308.424L378.081 301.454Z" fill="black"/>
<path d="M402.592 322.835L396.606 323.244L397.081 330.214L390.097 330.691L390.506 336.677L397.489 336.201L397.965 343.171L403.951 342.763L403.476 335.792L410.459 335.316L410.051 329.33L403.067 329.806L402.592 322.835Z" fill="black"/>
<path d="M356.699 325.965L350.713 326.373L351.188 333.344L344.204 333.82L344.613 339.806L351.596 339.33L352.072 346.301L358.058 345.893L357.582 338.922L364.566 338.446L364.158 332.46L357.174 332.936L356.699 325.965Z" fill="black"/>
<path d="M381.21 347.347L375.224 347.755L375.699 354.726L368.716 355.202L369.124 361.188L376.108 360.712L376.583 367.683L382.569 367.275L382.094 360.304L389.077 359.828L388.669 353.842L381.685 354.318L381.21 347.347Z" fill="black"/>
<path d="M420.844 252.43L414.858 252.839L415.334 259.809L408.35 260.286L408.758 266.272L415.742 265.796L416.217 272.766L422.203 272.358L421.728 265.387L428.712 264.911L428.304 258.925L421.32 259.401L420.844 252.43Z" fill="black"/>
<path d="M445.356 273.812L439.37 274.221L439.845 281.191L432.861 281.668L433.269 287.654L440.253 287.177L440.728 294.148L446.715 293.74L446.239 286.769L453.223 286.293L452.815 280.307L445.831 280.783L445.356 273.812Z" fill="black"/>
<path d="M399.463 276.942L393.476 277.35L393.952 284.321L386.968 284.797L387.376 290.783L394.36 290.307L394.835 297.278L400.822 296.87L400.346 289.899L407.33 289.423L406.922 283.437L399.938 283.913L399.463 276.942Z" fill="black"/>
<path d="M423.974 298.324L417.988 298.732L418.463 305.703L411.479 306.179L411.887 312.165L418.871 311.689L419.347 318.66L425.333 318.252L424.857 311.281L431.841 310.805L431.433 304.818L424.449 305.295L423.974 298.324Z" fill="black"/>
<path d="M329.057 258.69L323.071 259.098L323.547 266.069L316.563 266.545L316.971 272.531L323.955 272.055L324.43 279.026L330.416 278.617L329.941 271.647L336.925 271.17L336.516 265.184L329.533 265.661L329.057 258.69Z" fill="black"/>
<path d="M353.569 280.072L347.583 280.48L348.058 287.451L341.074 287.927L341.483 293.913L348.466 293.437L348.942 300.408L354.928 299.999L354.453 293.029L361.436 292.552L361.028 286.566L354.044 287.042L353.569 280.072Z" fill="black"/>
<path d="M307.675 283.201L301.689 283.61L302.165 290.58L295.181 291.057L295.589 297.043L302.573 296.566L303.048 303.537L309.034 303.129L308.559 296.158L315.543 295.682L315.135 289.696L308.151 290.172L307.675 283.201Z" fill="black"/>
<path d="M332.187 304.583L326.201 304.991L326.676 311.962L319.693 312.438L320.101 318.425L327.085 317.948L327.56 324.919L333.546 324.511L333.071 317.54L340.055 317.064L339.646 311.078L332.663 311.554L332.187 304.583Z" fill="black"/>
<path d="M371.821 209.667L365.835 210.075L366.311 217.046L359.327 217.522L359.735 223.508L366.719 223.032L367.194 230.003L373.18 229.594L372.705 222.624L379.689 222.147L379.281 216.161L372.297 216.638L371.821 209.667Z" fill="black"/>
<path d="M396.333 231.049L390.347 231.457L390.822 238.428L383.838 238.904L384.246 244.89L391.23 244.414L391.706 251.385L397.692 250.976L397.216 244.005L404.2 243.529L403.792 237.543L396.808 238.019L396.333 231.049Z" fill="black"/>
<path d="M350.44 234.178L344.454 234.586L344.929 241.557L337.945 242.034L338.353 248.02L345.337 247.543L345.812 254.514L351.799 254.106L351.323 247.135L358.307 246.659L357.899 240.673L350.915 241.149L350.44 234.178Z" fill="black"/>
<path d="M374.951 255.56L368.965 255.968L369.44 262.939L362.456 263.415L362.865 269.401L369.848 268.925L370.324 275.896L376.31 275.488L375.834 268.517L382.818 268.041L382.41 262.055L375.426 262.531L374.951 255.56Z" fill="black"/>
<path d="M463.608 203.407L457.622 203.816L458.097 210.786L451.114 211.263L451.522 217.249L458.506 216.773L458.981 223.743L464.967 223.335L464.492 216.364L471.475 215.888L471.067 209.902L464.083 210.378L463.608 203.407Z" fill="black"/>
<path d="M488.12 224.789L482.134 225.197L482.609 232.168L475.625 232.645L476.033 238.631L483.017 238.154L483.493 245.125L489.479 244.717L489.003 237.746L495.987 237.27L495.579 231.284L488.595 231.76L488.12 224.789Z" fill="black"/>
<path d="M442.226 227.919L436.24 228.327L436.715 235.298L429.732 235.774L430.14 241.76L437.124 241.284L437.599 248.255L443.585 247.847L443.11 240.876L450.094 240.4L449.685 234.413L442.702 234.89L442.226 227.919Z" fill="black"/>
<path d="M466.738 249.301L460.752 249.709L461.227 256.68L454.243 257.156L454.652 263.142L461.635 262.666L462.111 269.637L468.097 269.229L467.622 262.258L474.605 261.781L474.197 255.795L467.213 256.272L466.738 249.301Z" fill="black"/>
<path d="M506.372 154.384L500.386 154.793L500.861 161.763L493.877 162.24L494.285 168.226L501.269 167.749L501.745 174.72L507.731 174.312L507.255 167.341L514.239 166.865L513.831 160.879L506.847 161.355L506.372 154.384Z" fill="black"/>
<path d="M530.883 175.766L524.897 176.174L525.373 183.145L518.389 183.621L518.797 189.608L525.781 189.131L526.256 196.102L532.242 195.694L531.767 188.723L538.751 188.247L538.343 182.261L531.359 182.737L530.883 175.766Z" fill="black"/>
<path d="M484.99 178.896L479.004 179.304L479.479 186.275L472.495 186.751L472.904 192.737L479.887 192.261L480.363 199.232L486.349 198.824L485.873 191.853L492.857 191.377L492.449 185.39L485.465 185.867L484.99 178.896Z" fill="black"/>
<path d="M509.502 200.278L503.516 200.686L503.991 207.657L497.007 208.133L497.415 214.119L504.399 213.643L504.874 220.614L510.861 220.205L510.385 213.235L517.369 212.758L516.961 206.772L509.977 207.249L509.502 200.278Z" fill="black"/>
<path d="M414.585 160.644L408.599 161.052L409.074 168.023L402.091 168.499L402.499 174.485L409.483 174.009L409.958 180.98L415.944 180.571L415.469 173.601L422.452 173.124L422.044 167.138L415.06 167.614L414.585 160.644Z" fill="black"/>
<path d="M439.096 182.026L433.11 182.434L433.586 189.405L426.602 189.881L427.01 195.867L433.994 195.391L434.469 202.361L440.455 201.953L439.98 194.982L446.964 194.506L446.555 188.52L439.572 188.996L439.096 182.026Z" fill="black"/>
<path d="M393.203 185.155L387.217 185.563L387.693 192.534L380.709 193.01L381.117 198.997L388.101 198.52L388.576 205.491L394.562 205.083L394.087 198.112L401.071 197.636L400.662 191.65L393.679 192.126L393.203 185.155Z" fill="black"/>
<path d="M417.715 206.537L411.728 206.945L412.204 213.916L405.22 214.392L405.628 220.378L412.612 219.902L413.087 226.873L419.073 226.465L418.598 219.494L425.582 219.018L425.174 213.032L418.19 213.508L417.715 206.537Z" fill="black"/>
<path d="M457.349 111.621L451.363 112.029L451.838 119L444.854 119.476L445.262 125.462L452.246 124.986L452.722 131.957L458.708 131.548L458.232 124.577L465.216 124.101L464.808 118.115L457.824 118.591L457.349 111.621Z" fill="black"/>
<path d="M481.861 133.002L475.874 133.411L476.35 140.381L469.366 140.858L469.774 146.844L476.758 146.368L477.233 153.338L483.219 152.93L482.744 145.959L489.728 145.483L489.32 139.497L482.336 139.973L481.861 133.002Z" fill="black"/>
<path d="M435.967 136.132L429.981 136.54L430.456 143.511L423.472 143.987L423.881 149.973L430.864 149.497L431.34 156.468L437.326 156.06L436.851 149.089L443.834 148.613L443.426 142.627L436.442 143.103L435.967 136.132Z" fill="black"/>
<path d="M460.479 157.514L454.493 157.922L454.968 164.893L447.984 165.369L448.392 171.355L455.376 170.879L455.852 177.85L461.838 177.442L461.362 170.471L468.346 169.995L467.938 164.009L460.954 164.485L460.479 157.514Z" fill="black"/>
<path d="M280.035 215.926L274.049 216.334L274.524 223.305L267.54 223.781L267.949 229.767L274.932 229.291L275.408 236.262L281.394 235.854L280.918 228.883L287.902 228.407L287.494 222.421L280.51 222.897L280.035 215.926Z" fill="black"/>
<path d="M304.546 237.308L298.56 237.716L299.035 244.687L292.052 245.163L292.46 251.149L299.444 250.673L299.919 257.644L305.905 257.236L305.43 250.265L312.413 249.789L312.005 243.802L305.021 244.279L304.546 237.308Z" fill="black"/>
<path d="M258.653 240.438L252.667 240.846L253.142 247.817L246.158 248.293L246.567 254.279L253.55 253.803L254.026 260.773L260.012 260.365L259.537 253.394L266.52 252.918L266.112 246.932L259.128 247.408L258.653 240.438Z" fill="black"/>
<path d="M283.164 261.819L277.178 262.228L277.653 269.198L270.67 269.675L271.078 275.661L278.062 275.185L278.537 282.155L284.523 281.747L284.048 274.776L291.032 274.3L290.623 268.314L283.64 268.79L283.164 261.819Z" fill="black"/>
<path d="M322.798 166.903L316.812 167.311L317.288 174.282L310.304 174.758L310.712 180.744L317.696 180.268L318.171 187.239L324.157 186.831L323.682 179.86L330.666 179.384L330.258 173.398L323.274 173.874L322.798 166.903Z" fill="black"/>
<path d="M347.31 188.285L341.324 188.693L341.799 195.664L334.815 196.14L335.223 202.126L342.207 201.65L342.683 208.621L348.669 208.213L348.193 201.242L355.177 200.765L354.769 194.779L347.785 195.256L347.31 188.285Z" fill="black"/>
<path d="M301.417 191.415L295.431 191.823L295.906 198.794L288.922 199.27L289.33 205.256L296.314 204.78L296.79 211.75L302.776 211.342L302.3 204.371L309.284 203.895L308.876 197.909L301.892 198.385L301.417 191.415Z" fill="black"/>
<path d="M325.928 212.796L319.942 213.205L320.417 220.175L313.433 220.652L313.842 226.638L320.825 226.162L321.301 233.132L327.287 232.724L326.811 225.753L333.795 225.277L333.387 219.291L326.403 219.767L325.928 212.796Z" fill="black"/>
<path d="M231.011 173.162L225.025 173.571L225.501 180.541L218.517 181.018L218.925 187.004L225.909 186.527L226.384 193.498L232.37 193.09L231.895 186.119L238.879 185.643L238.471 179.657L231.487 180.133L231.011 173.162Z" fill="black"/>
<path d="M255.523 194.544L249.537 194.952L250.012 201.923L243.029 202.399L243.437 208.386L250.421 207.909L250.896 214.88L256.882 214.472L256.407 207.501L263.39 207.025L262.982 201.039L255.998 201.515L255.523 194.544Z" fill="black"/>
<path d="M209.63 197.674L203.643 198.082L204.119 205.053L197.135 205.529L197.543 211.515L204.527 211.039L205.002 218.01L210.988 217.602L210.513 210.631L217.497 210.154L217.089 204.168L210.105 204.645L209.63 197.674Z" fill="black"/>
<path d="M234.141 219.056L228.155 219.464L228.631 226.435L221.647 226.911L222.055 232.897L229.039 232.421L229.514 239.392L235.5 238.983L235.025 232.013L242.009 231.536L241.6 225.55L234.617 226.026L234.141 219.056Z" fill="black"/>
<path d="M273.776 124.139L267.789 124.547L268.265 131.518L261.281 131.994L261.689 137.981L268.673 137.504L269.148 144.475L275.134 144.067L274.659 137.096L281.643 136.62L281.235 130.634L274.251 131.11L273.776 124.139Z" fill="black"/>
<path d="M298.287 145.521L292.301 145.929L292.776 152.9L285.792 153.376L286.2 159.362L293.184 158.886L293.66 165.857L299.646 165.449L299.17 158.478L306.154 158.002L305.746 152.016L298.762 152.492L298.287 145.521Z" fill="black"/>
<path d="M252.394 148.651L246.408 149.059L246.883 156.03L239.899 156.506L240.307 162.492L247.291 162.016L247.767 168.987L253.753 168.578L253.277 161.608L260.261 161.131L259.853 155.145L252.869 155.622L252.394 148.651Z" fill="black"/>
<path d="M276.905 170.033L270.919 170.441L271.394 177.412L264.41 177.888L264.819 183.874L271.802 183.398L272.278 190.369L278.264 189.96L277.789 182.99L284.772 182.513L284.364 176.527L277.38 177.003L276.905 170.033Z" fill="black"/>
<path d="M365.562 117.88L359.576 118.288L360.051 125.259L353.068 125.735L353.476 131.721L360.46 131.245L360.935 138.216L366.921 137.808L366.446 130.837L373.43 130.361L373.021 124.374L366.038 124.851L365.562 117.88Z" fill="black"/>
<path d="M390.074 139.262L384.088 139.67L384.563 146.641L377.579 147.117L377.988 153.103L384.971 152.627L385.447 159.598L391.433 159.189L390.957 152.219L397.941 151.742L397.533 145.756L390.549 146.233L390.074 139.262Z" fill="black"/>
<path d="M344.18 142.391L338.194 142.8L338.67 149.77L331.686 150.247L332.094 156.233L339.078 155.757L339.553 162.727L345.539 162.319L345.064 155.348L352.048 154.872L351.639 148.886L344.656 149.362L344.18 142.391Z" fill="black"/>
<path d="M368.692 163.773L362.706 164.182L363.181 171.152L356.198 171.629L356.606 177.615L363.59 177.138L364.065 184.109L370.051 183.701L369.576 176.73L376.559 176.254L376.151 170.268L369.167 170.744L368.692 163.773Z" fill="black"/>
<path d="M408.326 68.8568L402.34 69.2651L402.815 76.2359L395.831 76.7121L396.24 82.6982L403.223 82.222L403.699 89.1928L409.685 88.7846L409.209 81.8137L416.193 81.3375L415.785 75.3514L408.801 75.8276L408.326 68.8568Z" fill="black"/>
<path d="M432.838 90.2387L426.851 90.6469L427.327 97.6177L420.343 98.094L420.751 104.08L427.735 103.604L428.21 110.575L434.197 110.166L433.721 103.196L440.705 102.719L440.297 96.7333L433.313 97.2095L432.838 90.2387Z" fill="black"/>
<path d="M386.944 93.3684L380.958 93.7766L381.433 100.747L374.449 101.224L374.858 107.21L381.841 106.733L382.317 113.704L388.303 113.296L387.828 106.325L394.811 105.849L394.403 99.8629L387.419 100.339L386.944 93.3684Z" fill="black"/>
<path d="M411.456 114.75L405.47 115.158L405.945 122.129L398.961 122.606L399.369 128.592L406.353 128.115L406.829 135.086L412.815 134.678L412.339 127.707L419.323 127.231L418.915 121.245L411.931 121.721L411.456 114.75Z" fill="black"/>
<path d="M316.539 75.1161L310.553 75.5244L311.028 82.4952L304.045 82.9714L304.453 88.9575L311.437 88.4813L311.912 95.4521L317.898 95.0439L317.423 88.073L324.407 87.5968L323.998 81.6107L317.015 82.087L316.539 75.1161Z" fill="black"/>
<path d="M341.05 96.498L335.064 96.9062L335.54 103.877L328.556 104.353L328.964 110.339L335.948 109.863L336.423 116.834L342.409 116.426L341.934 109.455L348.918 108.979L348.51 102.993L341.526 103.469L341.05 96.498Z" fill="black"/>
<path d="M295.157 99.6277L289.171 100.036L289.647 107.007L282.663 107.483L283.071 113.469L290.055 112.993L290.53 119.964L296.516 119.555L296.041 112.585L303.025 112.108L302.617 106.122L295.633 106.598L295.157 99.6277Z" fill="black"/>
<path d="M319.669 121.01L313.683 121.418L314.158 128.389L307.174 128.865L307.582 134.851L314.566 134.375L315.041 141.345L321.028 140.937L320.552 133.966L327.536 133.49L327.128 127.504L320.144 127.98L319.669 121.01Z" fill="black"/>
<path d="M359.303 26.0931L353.317 26.5013L353.792 33.4721L346.808 33.9483L347.217 39.9344L354.2 39.4582L354.676 46.429L360.662 46.0208L360.186 39.05L367.17 38.5737L366.762 32.5876L359.778 33.0639L359.303 26.0931Z" fill="black"/>
<path d="M383.815 47.475L377.829 47.8832L378.304 54.854L371.32 55.3302L371.728 61.3163L378.712 60.8401L379.187 67.8109L385.174 67.4027L384.698 60.4319L391.682 59.9556L391.274 53.9695L384.29 54.4458L383.815 47.475Z" fill="black"/>
<path d="M337.921 50.6046L331.935 51.0128L332.41 57.9836L325.427 58.4599L325.835 64.446L332.819 63.9697L333.294 70.9405L339.28 70.5323L338.805 63.5615L345.788 63.0853L345.38 57.0992L338.396 57.5754L337.921 50.6046Z" fill="black"/>
<path d="M362.433 71.9865L356.447 72.3947L356.922 79.3655L349.938 79.8418L350.346 85.8278L357.33 85.3516L357.806 92.3224L363.792 91.9142L363.316 84.9434L370.3 84.4671L369.892 78.481L362.908 78.9573L362.433 71.9865Z" fill="black"/>
<path d="M403.118 668.601L397.132 669.009L397.608 675.98L390.624 676.456L391.032 682.442L398.016 681.966L398.491 688.937L404.477 688.529L404.002 681.558L410.986 681.081L410.577 675.095L403.594 675.572L403.118 668.601Z" fill="black"/>
<path d="M427.63 689.983L421.643 690.391L422.119 697.362L415.135 697.838L415.543 703.824L422.527 703.348L423.002 710.319L428.988 709.91L428.513 702.94L435.497 702.463L435.089 696.477L428.105 696.954L427.63 689.983Z" fill="black"/>
<path d="M381.736 693.112L375.75 693.521L376.226 700.491L369.242 700.968L369.65 706.954L376.634 706.477L377.109 713.448L383.095 713.04L382.62 706.069L389.604 705.593L389.196 699.607L382.212 700.083L381.736 693.112Z" fill="black"/>
<path d="M406.248 714.494L400.262 714.902L400.737 721.873L393.753 722.35L394.161 728.336L401.145 727.859L401.621 734.83L407.607 734.422L407.131 727.451L414.115 726.975L413.707 720.989L406.723 721.465L406.248 714.494Z" fill="black"/>
<path d="M445.882 619.578L439.896 619.986L440.371 626.957L433.387 627.433L433.796 633.419L440.779 632.943L441.255 639.914L447.241 639.505L446.766 632.535L453.749 632.058L453.341 626.072L446.357 626.549L445.882 619.578Z" fill="black"/>
<path d="M470.393 640.96L464.407 641.368L464.882 648.339L457.899 648.815L458.307 654.801L465.291 654.325L465.766 661.296L471.752 660.887L471.277 653.917L478.261 653.44L477.852 647.454L470.869 647.93L470.393 640.96Z" fill="black"/>
<path d="M424.5 644.089L418.514 644.498L418.989 651.468L412.006 651.945L412.414 657.931L419.398 657.454L419.873 664.425L425.859 664.017L425.384 657.046L432.368 656.57L431.959 650.584L424.976 651.06L424.5 644.089Z" fill="black"/>
<path d="M449.011 665.471L443.025 665.879L443.501 672.85L436.517 673.326L436.925 679.313L443.909 678.836L444.384 685.807L450.37 685.399L449.895 678.428L456.879 677.952L456.471 671.966L449.487 672.442L449.011 665.471Z" fill="black"/>
<path d="M354.095 625.837L348.109 626.245L348.584 633.216L341.6 633.692L342.009 639.678L348.992 639.202L349.468 646.173L355.454 645.765L354.978 638.794L361.962 638.318L361.554 632.332L354.57 632.808L354.095 625.837Z" fill="black"/>
<path d="M378.607 647.219L372.62 647.627L373.096 654.598L366.112 655.074L366.52 661.06L373.504 660.584L373.979 667.555L379.966 667.147L379.49 660.176L386.474 659.7L386.066 653.714L379.082 654.19L378.607 647.219Z" fill="black"/>
<path d="M332.713 650.349L326.727 650.757L327.202 657.728L320.219 658.204L320.627 664.19L327.611 663.714L328.086 670.685L334.072 670.276L333.597 663.306L340.58 662.829L340.172 656.843L333.188 657.319L332.713 650.349Z" fill="black"/>
<path d="M357.225 671.73L351.239 672.139L351.714 679.11L344.73 679.586L345.138 685.572L352.122 685.096L352.598 692.066L358.584 691.658L358.108 684.687L365.092 684.211L364.684 678.225L357.7 678.701L357.225 671.73Z" fill="black"/>
<path d="M396.859 576.814L390.873 577.222L391.348 584.193L384.365 584.669L384.773 590.655L391.757 590.179L392.232 597.15L398.218 596.742L397.743 589.771L404.726 589.295L404.318 583.309L397.334 583.785L396.859 576.814Z" fill="black"/>
<path d="M421.37 598.196L415.384 598.604L415.86 605.575L408.876 606.051L409.284 612.037L416.268 611.561L416.743 618.532L422.729 618.124L422.254 611.153L429.238 610.677L428.829 604.69L421.846 605.167L421.37 598.196Z" fill="black"/>
<path d="M375.477 601.326L369.491 601.734L369.966 608.705L362.983 609.181L363.391 615.167L370.375 614.691L370.85 621.661L376.836 621.253L376.361 614.282L383.345 613.806L382.936 607.82L375.953 608.296L375.477 601.326Z" fill="black"/>
<path d="M399.988 622.707L394.002 623.116L394.478 630.086L387.494 630.563L387.902 636.549L394.886 636.073L395.361 643.043L401.347 642.635L400.872 635.664L407.856 635.188L407.448 629.202L400.464 629.678L399.988 622.707Z" fill="black"/>
<path d="M488.646 570.555L482.66 570.963L483.135 577.934L476.151 578.41L476.559 584.396L483.543 583.92L484.019 590.891L490.005 590.482L489.529 583.512L496.513 583.035L496.105 577.049L489.121 577.526L488.646 570.555Z" fill="black"/>
<path d="M513.157 591.937L507.171 592.345L507.647 599.316L500.663 599.792L501.071 605.778L508.055 605.302L508.53 612.273L514.516 611.864L514.041 604.893L521.025 604.417L520.617 598.431L513.633 598.907L513.157 591.937Z" fill="black"/>
<path d="M467.264 595.066L461.278 595.474L461.753 602.445L454.769 602.922L455.178 608.908L462.161 608.431L462.637 615.402L468.623 614.994L468.147 608.023L475.131 607.547L474.723 601.561L467.739 602.037L467.264 595.066Z" fill="black"/>
<path d="M491.776 616.448L485.789 616.856L486.265 623.827L479.281 624.303L479.689 630.289L486.673 629.813L487.148 636.784L493.134 636.376L492.659 629.405L499.643 628.929L499.235 622.943L492.251 623.419L491.776 616.448Z" fill="black"/>
<path d="M531.409 521.532L525.423 521.94L525.899 528.911L518.915 529.387L519.323 535.373L526.307 534.897L526.782 541.868L532.768 541.459L532.293 534.489L539.277 534.012L538.868 528.026L531.885 528.502L531.409 521.532Z" fill="black"/>
<path d="M555.921 542.914L549.935 543.322L550.41 550.293L543.427 550.769L543.835 556.755L550.819 556.279L551.294 563.249L557.28 562.841L556.805 555.87L563.788 555.394L563.38 549.408L556.396 549.884L555.921 542.914Z" fill="black"/>
<path d="M510.027 546.043L504.041 546.451L504.517 553.422L497.533 553.898L497.941 559.885L504.925 559.408L505.4 566.379L511.386 565.971L510.911 559L517.895 558.524L517.487 552.538L510.503 553.014L510.027 546.043Z" fill="black"/>
<path d="M534.539 567.425L528.553 567.833L529.028 574.804L522.045 575.28L522.453 581.266L529.437 580.79L529.912 587.761L535.898 587.353L535.423 580.382L542.407 579.906L541.998 573.92L535.015 574.396L534.539 567.425Z" fill="black"/>
<path d="M439.623 527.791L433.637 528.199L434.112 535.17L427.128 535.646L427.536 541.632L434.52 541.156L434.996 548.127L440.982 547.719L440.506 540.748L447.49 540.272L447.082 534.286L440.098 534.762L439.623 527.791Z" fill="black"/>
<path d="M464.134 549.173L458.148 549.581L458.623 556.552L451.639 557.028L452.048 563.014L459.031 562.538L459.507 569.509L465.493 569.101L465.018 562.13L472.001 561.653L471.593 555.667L464.609 556.144L464.134 549.173Z" fill="black"/>
<path d="M418.241 552.302L412.255 552.711L412.73 559.682L405.746 560.158L406.155 566.144L413.138 565.668L413.614 572.638L419.6 572.23L419.124 565.259L426.108 564.783L425.7 558.797L418.716 559.273L418.241 552.302Z" fill="black"/>
<path d="M442.752 573.684L436.766 574.093L437.241 581.063L430.258 581.54L430.666 587.526L437.65 587.049L438.125 594.02L444.111 593.612L443.636 586.641L450.619 586.165L450.211 580.179L443.227 580.655L442.752 573.684Z" fill="black"/>
<path d="M482.386 478.768L476.4 479.176L476.876 486.147L469.892 486.623L470.3 492.609L477.284 492.133L477.759 499.104L483.745 498.696L483.27 491.725L490.254 491.249L489.846 485.262L482.862 485.739L482.386 478.768Z" fill="black"/>
<path d="M506.898 500.15L500.912 500.558L501.387 507.529L494.404 508.005L494.812 513.991L501.796 513.515L502.271 520.486L508.257 520.077L507.782 513.107L514.765 512.63L514.357 506.644L507.373 507.121L506.898 500.15Z" fill="black"/>
<path d="M461.005 503.279L455.018 503.688L455.494 510.658L448.51 511.135L448.918 517.121L455.902 516.645L456.377 523.615L462.363 523.207L461.888 516.236L468.872 515.76L468.464 509.774L461.48 510.25L461.005 503.279Z" fill="black"/>
<path d="M485.516 524.661L479.53 525.07L480.006 532.04L473.022 532.517L473.43 538.503L480.414 538.026L480.889 544.997L486.875 544.589L486.4 537.618L493.384 537.142L492.975 531.156L485.992 531.632L485.516 524.661Z" fill="black"/>
<path d="M305.072 583.073L299.086 583.482L299.561 590.452L292.577 590.929L292.986 596.915L299.969 596.438L300.445 603.409L306.431 603.001L305.956 596.03L312.939 595.554L312.531 589.568L305.547 590.044L305.072 583.073Z" fill="black"/>
<path d="M329.583 604.455L323.597 604.863L324.072 611.834L317.089 612.31L317.497 618.297L324.481 617.82L324.956 624.791L330.942 624.383L330.467 617.412L337.451 616.936L337.042 610.95L330.059 611.426L329.583 604.455Z" fill="black"/>
<path d="M283.69 607.585L277.704 607.993L278.179 614.964L271.196 615.44L271.604 621.426L278.588 620.95L279.063 627.921L285.049 627.513L284.574 620.542L291.557 620.066L291.149 614.079L284.165 614.556L283.69 607.585Z" fill="black"/>
<path d="M308.201 628.967L302.215 629.375L302.691 636.346L295.707 636.822L296.115 642.808L303.099 642.332L303.574 649.303L309.56 648.894L309.085 641.924L316.069 641.447L315.66 635.461L308.677 635.938L308.201 628.967Z" fill="black"/>
<path d="M347.836 534.05L341.85 534.458L342.325 541.429L335.341 541.906L335.749 547.892L342.733 547.415L343.208 554.386L349.195 553.978L348.719 547.007L355.703 546.531L355.295 540.545L348.311 541.021L347.836 534.05Z" fill="black"/>
<path d="M372.347 555.432L366.361 555.84L366.836 562.811L359.852 563.287L360.261 569.274L367.244 568.797L367.72 575.768L373.706 575.36L373.23 568.389L380.214 567.913L379.806 561.927L372.822 562.403L372.347 555.432Z" fill="black"/>
<path d="M326.454 558.562L320.468 558.97L320.943 565.941L313.959 566.417L314.367 572.403L321.351 571.927L321.827 578.898L327.813 578.49L327.337 571.519L334.321 571.042L333.913 565.056L326.929 565.533L326.454 558.562Z" fill="black"/>
<path d="M350.965 579.944L344.979 580.352L345.454 587.323L338.47 587.799L338.879 593.785L345.862 593.309L346.338 600.28L352.324 599.871L351.849 592.901L358.832 592.424L358.424 586.438L351.44 586.914L350.965 579.944Z" fill="black"/>
<path d="M256.048 540.31L250.062 540.718L250.538 547.689L243.554 548.165L243.962 554.151L250.946 553.675L251.421 560.646L257.407 560.237L256.932 553.266L263.916 552.79L263.508 546.804L256.524 547.28L256.048 540.31Z" fill="black"/>
<path d="M280.56 561.691L274.574 562.1L275.049 569.07L268.066 569.547L268.474 575.533L275.458 575.057L275.933 582.027L281.919 581.619L281.444 574.648L288.428 574.172L288.019 568.186L281.036 568.662L280.56 561.691Z" fill="black"/>
<path d="M234.667 564.821L228.681 565.229L229.156 572.2L222.172 572.676L222.58 578.662L229.564 578.186L230.04 585.157L236.026 584.749L235.55 577.778L242.534 577.302L242.126 571.316L235.142 571.792L234.667 564.821Z" fill="black"/>
<path d="M259.178 586.203L253.192 586.611L253.668 593.582L246.684 594.058L247.092 600.044L254.076 599.568L254.551 606.539L260.537 606.131L260.062 599.16L267.046 598.684L266.638 592.698L259.654 593.174L259.178 586.203Z" fill="black"/>
<path d="M298.813 491.287L292.827 491.695L293.302 498.666L286.318 499.142L286.726 505.128L293.71 504.652L294.186 511.622L300.172 511.214L299.696 504.243L306.68 503.767L306.272 497.781L299.288 498.257L298.813 491.287Z" fill="black"/>
<path d="M323.324 512.668L317.338 513.077L317.813 520.047L310.829 520.524L311.238 526.51L318.221 526.034L318.697 533.004L324.683 532.596L324.207 525.625L331.191 525.149L330.783 519.163L323.799 519.639L323.324 512.668Z" fill="black"/>
<path d="M277.431 515.798L271.445 516.206L271.92 523.177L264.936 523.653L265.345 529.639L272.328 529.163L272.804 536.134L278.79 535.726L278.314 528.755L285.298 528.279L284.89 522.293L277.906 522.769L277.431 515.798Z" fill="black"/>
<path d="M301.942 537.18L295.956 537.588L296.431 544.559L289.448 545.035L289.856 551.021L296.84 550.545L297.315 557.516L303.301 557.108L302.826 550.137L309.809 549.661L309.401 543.674L302.417 544.151L301.942 537.18Z" fill="black"/>
<path d="M390.599 485.027L384.613 485.435L385.089 492.406L378.105 492.882L378.513 498.869L385.497 498.392L385.972 505.363L391.958 504.955L391.483 497.984L398.467 497.508L398.058 491.522L391.075 491.998L390.599 485.027Z" fill="black"/>
<path d="M415.111 506.409L409.125 506.817L409.6 513.788L402.616 514.264L403.025 520.25L410.008 519.774L410.484 526.745L416.47 526.337L415.995 519.366L422.978 518.89L422.57 512.904L415.586 513.38L415.111 506.409Z" fill="black"/>
<path d="M369.217 509.539L363.231 509.947L363.707 516.918L356.723 517.394L357.131 523.38L364.115 522.904L364.59 529.875L370.576 529.466L370.101 522.496L377.085 522.019L376.677 516.033L369.693 516.51L369.217 509.539Z" fill="black"/>
<path d="M393.729 530.921L387.743 531.329L388.218 538.3L381.235 538.776L381.643 544.762L388.627 544.286L389.102 551.257L395.088 550.848L394.613 543.878L401.597 543.401L401.188 537.415L394.205 537.891L393.729 530.921Z" fill="black"/>
<path d="M433.363 436.004L427.377 436.412L427.852 443.383L420.868 443.859L421.277 449.846L428.26 449.369L428.736 456.34L434.722 455.932L434.247 448.961L441.23 448.485L440.822 442.499L433.838 442.975L433.363 436.004Z" fill="black"/>
<path d="M457.875 457.386L451.889 457.794L452.364 464.765L445.38 465.241L445.788 471.227L452.772 470.751L453.248 477.722L459.234 477.314L458.758 470.343L465.742 469.867L465.334 463.881L458.35 464.357L457.875 457.386Z" fill="black"/>
<path d="M411.981 460.516L405.995 460.924L406.47 467.895L399.487 468.371L399.895 474.357L406.879 473.881L407.354 480.852L413.34 480.443L412.865 473.473L419.848 472.996L419.44 467.01L412.456 467.486L411.981 460.516Z" fill="black"/>
<path d="M436.493 481.898L430.507 482.306L430.982 489.277L423.998 489.753L424.407 495.739L431.39 495.263L431.866 502.233L437.852 501.825L437.376 494.854L444.36 494.378L443.952 488.392L436.968 488.868L436.493 481.898Z" fill="black"/>
<path d="M341.576 442.263L335.59 442.672L336.066 449.642L329.082 450.119L329.49 456.105L336.474 455.629L336.949 462.599L342.935 462.191L342.46 455.22L349.444 454.744L349.035 448.758L342.052 449.234L341.576 442.263Z" fill="black"/>
<path d="M366.088 463.645L360.101 464.054L360.577 471.024L353.593 471.501L354.001 477.487L360.985 477.01L361.46 483.981L367.447 483.573L366.971 476.602L373.955 476.126L373.547 470.14L366.563 470.616L366.088 463.645Z" fill="black"/>
<path d="M320.194 466.775L314.208 467.183L314.684 474.154L307.7 474.63L308.108 480.616L315.092 480.14L315.567 487.111L321.553 486.703L321.078 479.732L328.062 479.256L327.654 473.27L320.67 473.746L320.194 466.775Z" fill="black"/>
<path d="M344.706 488.157L338.72 488.565L339.195 495.536L332.211 496.012L332.619 501.998L339.603 501.522L340.079 508.493L346.065 508.085L345.589 501.114L352.573 500.638L352.165 494.651L345.181 495.128L344.706 488.157Z" fill="black"/>
<path d="M384.34 393.24L378.354 393.649L378.829 400.619L371.845 401.096L372.254 407.082L379.237 406.606L379.713 413.576L385.699 413.168L385.224 406.197L392.207 405.721L391.799 399.735L384.815 400.211L384.34 393.24Z" fill="black"/>
<path d="M408.852 414.622L402.866 415.03L403.341 422.001L396.357 422.478L396.765 428.464L403.749 427.987L404.225 434.958L410.211 434.55L409.735 427.579L416.719 427.103L416.311 421.117L409.327 421.593L408.852 414.622Z" fill="black"/>
<path d="M362.958 417.752L356.972 418.16L357.447 425.131L350.464 425.607L350.872 431.593L357.856 431.117L358.331 438.088L364.317 437.68L363.842 430.709L370.826 430.233L370.417 424.246L363.434 424.723L362.958 417.752Z" fill="black"/>
<path d="M387.47 439.134L381.484 439.542L381.959 446.513L374.975 446.989L375.384 452.975L382.367 452.499L382.843 459.47L388.829 459.062L388.353 452.091L395.337 451.614L394.929 445.628L387.945 446.105L387.47 439.134Z" fill="black"/>
<path d="M574.173 472.509L568.187 472.917L568.662 479.888L561.678 480.364L562.087 486.35L569.07 485.874L569.546 492.844L575.532 492.436L575.057 485.465L582.04 484.989L581.632 479.003L574.648 479.479L574.173 472.509Z" fill="black"/>
<path d="M598.684 493.89L592.698 494.299L593.174 501.269L586.19 501.746L586.598 507.732L593.582 507.256L594.057 514.226L600.043 513.818L599.568 506.847L606.552 506.371L606.143 500.385L599.16 500.861L598.684 493.89Z" fill="black"/>
<path d="M552.791 497.02L546.805 497.428L547.28 504.399L540.297 504.875L540.705 510.861L547.689 510.385L548.164 517.356L554.15 516.948L553.675 509.977L560.659 509.501L560.25 503.515L553.267 503.991L552.791 497.02Z" fill="black"/>
<path d="M577.302 518.402L571.316 518.81L571.792 525.781L564.808 526.257L565.216 532.243L572.2 531.767L572.675 538.738L578.661 538.33L578.186 531.359L585.17 530.883L584.762 524.897L577.778 525.373L577.302 518.402Z" fill="black"/>
<path d="M616.937 423.485L610.951 423.894L611.426 430.865L604.442 431.341L604.85 437.327L611.834 436.851L612.31 443.821L618.296 443.413L617.82 436.442L624.804 435.966L624.396 429.98L617.412 430.456L616.937 423.485Z" fill="black"/>
<path d="M641.448 444.867L635.462 445.276L635.937 452.246L628.953 452.723L629.362 458.709L636.345 458.232L636.821 465.203L642.807 464.795L642.331 457.824L649.315 457.348L648.907 451.362L641.923 451.838L641.448 444.867Z" fill="black"/>
<path d="M595.555 447.997L589.569 448.405L590.044 455.376L583.06 455.852L583.469 461.838L590.452 461.362L590.928 468.333L596.914 467.925L596.438 460.954L603.422 460.478L603.014 454.492L596.03 454.968L595.555 447.997Z" fill="black"/>
<path d="M620.066 469.379L614.08 469.787L614.555 476.758L607.572 477.234L607.98 483.22L614.964 482.744L615.439 489.715L621.425 489.307L620.95 482.336L627.933 481.86L627.525 475.873L620.541 476.35L620.066 469.379Z" fill="black"/>
<path d="M525.15 429.745L519.163 430.153L519.639 437.124L512.655 437.6L513.063 443.586L520.047 443.11L520.522 450.081L526.509 449.673L526.033 442.702L533.017 442.225L532.609 436.239L525.625 436.716L525.15 429.745Z" fill="black"/>
<path d="M549.661 451.127L543.675 451.535L544.151 458.506L537.167 458.982L537.575 464.968L544.559 464.492L545.034 471.463L551.02 471.054L550.545 464.084L557.529 463.607L557.12 457.621L550.137 458.097L549.661 451.127Z" fill="black"/>
<path d="M503.768 454.256L497.782 454.665L498.257 461.635L491.273 462.112L491.681 468.098L498.665 467.621L499.141 474.592L505.127 474.184L504.651 467.213L511.635 466.737L511.227 460.751L504.243 461.227L503.768 454.256Z" fill="black"/>
<path d="M528.279 475.638L522.293 476.046L522.769 483.017L515.785 483.493L516.193 489.48L523.177 489.003L523.652 495.974L529.638 495.566L529.163 488.595L536.147 488.119L535.739 482.133L528.755 482.609L528.279 475.638Z" fill="black"/>
<path d="M567.914 380.722L561.928 381.13L562.403 388.101L555.419 388.577L555.827 394.563L562.811 394.087L563.287 401.058L569.273 400.649L568.797 393.679L575.781 393.202L575.373 387.216L568.389 387.693L567.914 380.722Z" fill="black"/>
<path d="M592.425 402.104L586.439 402.512L586.914 409.483L579.93 409.959L580.339 415.945L587.322 415.469L587.798 422.44L593.784 422.031L593.309 415.061L600.292 414.584L599.884 408.598L592.9 409.074L592.425 402.104Z" fill="black"/>
<path d="M546.532 405.233L540.546 405.641L541.021 412.612L534.037 413.089L534.446 419.075L541.429 418.598L541.905 425.569L547.891 425.161L547.415 418.19L554.399 417.714L553.991 411.728L547.007 412.204L546.532 405.233Z" fill="black"/>
<path d="M571.043 426.615L565.057 427.023L565.532 433.994L558.549 434.47L558.957 440.457L565.941 439.98L566.416 446.951L572.402 446.543L571.927 439.572L578.91 439.096L578.502 433.11L571.518 433.586L571.043 426.615Z" fill="black"/>
<path d="M659.7 374.462L653.714 374.871L654.19 381.841L647.206 382.318L647.614 388.304L654.598 387.828L655.073 394.798L661.059 394.39L660.584 387.419L667.568 386.943L667.159 380.957L660.176 381.433L659.7 374.462Z" fill="black"/>
<path d="M684.212 395.844L678.226 396.253L678.701 403.223L671.718 403.7L672.126 409.686L679.11 409.209L679.585 416.18L685.571 415.772L685.096 408.801L692.079 408.325L691.671 402.339L684.687 402.815L684.212 395.844Z" fill="black"/>
<path d="M638.319 398.974L632.332 399.382L632.808 406.353L625.824 406.829L626.232 412.815L633.216 412.339L633.691 419.31L639.677 418.902L639.202 411.931L646.186 411.455L645.778 405.469L638.794 405.945L638.319 398.974Z" fill="black"/>
<path d="M662.83 420.356L656.844 420.764L657.319 427.735L650.336 428.211L650.744 434.197L657.728 433.721L658.203 440.692L664.189 440.284L663.714 433.313L670.698 432.836L670.289 426.85L663.306 427.327L662.83 420.356Z" fill="black"/>
<path d="M702.464 325.439L696.478 325.848L696.953 332.818L689.97 333.295L690.378 339.281L697.362 338.804L697.837 345.775L703.823 345.367L703.348 338.396L710.331 337.92L709.923 331.934L702.939 332.41L702.464 325.439Z" fill="black"/>
<path d="M726.976 346.821L720.99 347.229L721.465 354.2L714.481 354.677L714.889 360.663L721.873 360.186L722.349 367.157L728.335 366.749L727.859 359.778L734.843 359.302L734.435 353.316L727.451 353.792L726.976 346.821Z" fill="black"/>
<path d="M681.082 349.951L675.096 350.359L675.571 357.33L668.588 357.806L668.996 363.792L675.98 363.316L676.455 370.287L682.441 369.879L681.966 362.908L688.95 362.432L688.541 356.445L681.558 356.922L681.082 349.951Z" fill="black"/>
<path d="M705.594 371.333L699.608 371.741L700.083 378.712L693.099 379.188L693.508 385.174L700.491 384.698L700.967 391.669L706.953 391.26L706.477 384.29L713.461 383.813L713.053 377.827L706.069 378.304L705.594 371.333Z" fill="black"/>
<path d="M610.677 331.699L604.691 332.107L605.167 339.078L598.183 339.554L598.591 345.54L605.575 345.064L606.05 352.035L612.036 351.626L611.561 344.656L618.545 344.179L618.137 338.193L611.153 338.669L610.677 331.699Z" fill="black"/>
<path d="M635.189 353.081L629.203 353.489L629.678 360.46L622.694 360.936L623.102 366.922L630.086 366.446L630.561 373.416L636.548 373.008L636.072 366.037L643.056 365.561L642.648 359.575L635.664 360.051L635.189 353.081Z" fill="black"/>
<path d="M589.296 356.21L583.309 356.618L583.785 363.589L576.801 364.065L577.209 370.052L584.193 369.575L584.668 376.546L590.655 376.138L590.179 369.167L597.163 368.691L596.755 362.705L589.771 363.181L589.296 356.21Z" fill="black"/>
<path d="M613.807 377.592L607.821 378L608.296 384.971L601.312 385.447L601.72 391.433L608.704 390.957L609.18 397.928L615.166 397.52L614.69 390.549L621.674 390.073L621.266 384.087L614.282 384.563L613.807 377.592Z" fill="black"/>
<path d="M653.441 282.676L647.455 283.084L647.93 290.055L640.947 290.531L641.355 296.517L648.339 296.041L648.814 303.012L654.8 302.603L654.325 295.632L661.308 295.156L660.9 289.17L653.916 289.646L653.441 282.676Z" fill="black"/>
<path d="M677.953 304.057L671.967 304.466L672.442 311.436L665.458 311.913L665.866 317.899L672.85 317.423L673.326 324.393L679.312 323.985L678.836 317.014L685.82 316.538L685.412 310.552L678.428 311.028L677.953 304.057Z" fill="black"/>
<path d="M632.059 307.187L626.073 307.595L626.549 314.566L619.565 315.042L619.973 321.029L626.957 320.552L627.432 327.523L633.418 327.115L632.943 320.144L639.927 319.668L639.518 313.682L632.535 314.158L632.059 307.187Z" fill="black"/>
<path d="M656.571 328.569L650.585 328.977L651.06 335.948L644.076 336.424L644.485 342.41L651.468 341.934L651.944 348.905L657.93 348.497L657.455 341.526L664.438 341.05L664.03 335.064L657.046 335.54L656.571 328.569Z" fill="black"/>
<path d="M476.127 386.981L470.141 387.389L470.616 394.36L463.633 394.836L464.041 400.822L471.025 400.346L471.5 407.317L477.486 406.909L477.011 399.938L483.994 399.462L483.586 393.476L476.602 393.952L476.127 386.981Z" fill="black"/>
<path d="M500.638 408.363L494.652 408.771L495.128 415.742L488.144 416.218L488.552 422.204L495.536 421.728L496.011 428.699L501.997 428.291L501.522 421.32L508.506 420.844L508.097 414.858L501.114 415.334L500.638 408.363Z" fill="black"/>
<path d="M454.745 411.493L448.759 411.901L449.235 418.872L442.251 419.348L442.659 425.334L449.643 424.858L450.118 431.829L456.104 431.42L455.629 424.45L462.613 423.973L462.204 417.987L455.221 418.463L454.745 411.493Z" fill="black"/>
<path d="M479.256 432.874L473.27 433.283L473.746 440.254L466.762 440.73L467.17 446.716L474.154 446.24L474.629 453.21L480.615 452.802L480.14 445.831L487.124 445.355L486.716 439.369L479.732 439.845L479.256 432.874Z" fill="black"/>
<path d="M518.891 337.958L512.905 338.366L513.38 345.337L506.396 345.813L506.804 351.799L513.788 351.323L514.264 358.294L520.25 357.886L519.774 350.915L526.758 350.439L526.35 344.453L519.366 344.929L518.891 337.958Z" fill="black"/>
<path d="M543.402 359.34L537.416 359.748L537.891 366.719L530.907 367.195L531.316 373.181L538.299 372.705L538.775 379.676L544.761 379.268L544.286 372.297L551.269 371.821L550.861 365.834L543.877 366.311L543.402 359.34Z" fill="black"/>
<path d="M497.509 362.47L491.523 362.878L491.998 369.849L485.014 370.325L485.423 376.311L492.406 375.835L492.882 382.805L498.868 382.397L498.393 375.426L505.376 374.95L504.968 368.964L497.984 369.44L497.509 362.47Z" fill="black"/>
<path d="M522.02 383.851L516.034 384.26L516.509 391.23L509.526 391.707L509.934 397.693L516.918 397.217L517.393 404.187L523.379 403.779L522.904 396.808L529.888 396.332L529.479 390.346L522.496 390.822L522.02 383.851Z" fill="black"/>
<path d="M427.104 344.217L421.118 344.626L421.593 351.596L414.609 352.073L415.017 358.059L422.001 357.582L422.477 364.553L428.463 364.145L427.987 357.174L434.971 356.698L434.563 350.712L427.579 351.188L427.104 344.217Z" fill="black"/>
<path d="M451.615 365.599L445.629 366.007L446.105 372.978L439.121 373.454L439.529 379.441L446.513 378.964L446.988 385.935L452.974 385.527L452.499 378.556L459.483 378.08L459.075 372.094L452.091 372.57L451.615 365.599Z" fill="black"/>
<path d="M405.722 368.729L399.736 369.137L400.211 376.108L393.227 376.584L393.636 382.57L400.619 382.094L401.095 389.065L407.081 388.657L406.605 381.686L413.589 381.209L413.181 375.223L406.197 375.7L405.722 368.729Z" fill="black"/>
<path d="M430.234 390.111L424.247 390.519L424.723 397.49L417.739 397.966L418.147 403.952L425.131 403.476L425.606 410.447L431.593 410.038L431.117 403.068L438.101 402.591L437.693 396.605L430.709 397.082L430.234 390.111Z" fill="black"/>
<path d="M469.868 295.194L463.882 295.602L464.357 302.573L457.373 303.05L457.782 309.036L464.765 308.559L465.241 315.53L471.227 315.122L470.751 308.151L477.735 307.675L477.327 301.689L470.343 302.165L469.868 295.194Z" fill="black"/>
<path d="M494.379 316.576L488.393 316.984L488.868 323.955L481.885 324.431L482.293 330.417L489.277 329.941L489.752 336.912L495.738 336.504L495.263 329.533L502.246 329.057L501.838 323.071L494.854 323.547L494.379 316.576Z" fill="black"/>
<path d="M448.486 319.706L442.5 320.114L442.975 327.085L435.991 327.561L436.4 333.547L443.383 333.071L443.859 340.042L449.845 339.633L449.37 332.663L456.353 332.186L455.945 326.2L448.961 326.677L448.486 319.706Z" fill="black"/>
<path d="M472.997 341.088L467.011 341.496L467.486 348.467L460.503 348.943L460.911 354.929L467.895 354.453L468.37 361.424L474.356 361.015L473.881 354.045L480.865 353.568L480.456 347.582L473.473 348.058L472.997 341.088Z" fill="black"/>
<path d="M561.654 288.935L555.668 289.343L556.144 296.314L549.16 296.79L549.568 302.776L556.552 302.3L557.027 309.271L563.013 308.863L562.538 301.892L569.522 301.416L569.114 295.429L562.13 295.906L561.654 288.935Z" fill="black"/>
<path d="M586.166 310.317L580.18 310.725L580.655 317.696L573.672 318.172L574.08 324.158L581.064 323.682L581.539 330.653L587.525 330.245L587.05 323.274L594.034 322.797L593.625 316.811L586.642 317.288L586.166 310.317Z" fill="black"/>
<path d="M540.273 313.446L534.287 313.855L534.762 320.825L527.778 321.302L528.186 327.288L535.17 326.812L535.645 333.782L541.632 333.374L541.156 326.403L548.14 325.927L547.732 319.941L540.748 320.417L540.273 313.446Z" fill="black"/>
<path d="M564.784 334.828L558.798 335.237L559.274 342.207L552.29 342.684L552.698 348.67L559.682 348.193L560.157 355.164L566.143 354.756L565.668 347.785L572.652 347.309L572.243 341.323L565.26 341.799L564.784 334.828Z" fill="black"/>
<path d="M604.418 239.912L598.432 240.32L598.907 247.291L591.924 247.767L592.332 253.753L599.316 253.277L599.791 260.248L605.777 259.84L605.302 252.869L612.285 252.393L611.877 246.406L604.893 246.883L604.418 239.912Z" fill="black"/>
<path d="M628.93 261.294L622.944 261.702L623.419 268.673L616.435 269.149L616.844 275.135L623.827 274.659L624.303 281.63L630.289 281.221L629.813 274.251L636.797 273.774L636.389 267.788L629.405 268.265L628.93 261.294Z" fill="black"/>
<path d="M583.036 264.423L577.05 264.832L577.526 271.802L570.542 272.279L570.95 278.265L577.934 277.789L578.409 284.759L584.395 284.351L583.92 277.38L590.904 276.904L590.495 270.918L583.512 271.394L583.036 264.423Z" fill="black"/>
<path d="M607.548 285.805L601.562 286.213L602.037 293.184L595.053 293.661L595.462 299.647L602.445 299.17L602.921 306.141L608.907 305.733L608.432 298.762L615.415 298.286L615.007 292.3L608.023 292.776L607.548 285.805Z" fill="black"/>
<path d="M512.631 246.171L506.645 246.579L507.121 253.55L500.137 254.026L500.545 260.013L507.529 259.536L508.004 266.507L513.99 266.099L513.515 259.128L520.499 258.652L520.091 252.666L513.107 253.142L512.631 246.171Z" fill="black"/>
<path d="M537.143 267.553L531.157 267.961L531.632 274.932L524.648 275.408L525.056 281.394L532.04 280.918L532.516 287.889L538.502 287.481L538.026 280.51L545.01 280.034L544.602 274.048L537.618 274.524L537.143 267.553Z" fill="black"/>
<path d="M491.25 270.683L485.264 271.091L485.739 278.062L478.755 278.538L479.163 284.524L486.147 284.048L486.623 291.019L492.609 290.61L492.133 283.64L499.117 283.163L498.709 277.177L491.725 277.654L491.25 270.683Z" fill="black"/>
<path d="M515.761 292.065L509.775 292.473L510.25 299.444L503.266 299.92L503.675 305.906L510.658 305.43L511.134 312.401L517.12 311.992L516.644 305.021L523.628 304.545L523.22 298.559L516.236 299.035L515.761 292.065Z" fill="black"/>
<path d="M555.395 197.148L549.409 197.556L549.884 204.527L542.901 205.003L543.309 210.989L550.293 210.513L550.768 217.484L556.754 217.076L556.279 210.105L563.263 209.629L562.854 203.643L555.871 204.119L555.395 197.148Z" fill="black"/>
<path d="M579.907 218.53L573.921 218.938L574.396 225.909L567.412 226.385L567.821 232.371L574.804 231.895L575.28 238.866L581.266 238.458L580.79 231.487L587.774 231.011L587.366 225.025L580.382 225.501L579.907 218.53Z" fill="black"/>
<path d="M534.013 221.66L528.027 222.068L528.503 229.039L521.519 229.515L521.927 235.501L528.911 235.025L529.386 241.996L535.372 241.587L534.897 234.617L541.881 234.14L541.472 228.154L534.489 228.63L534.013 221.66Z" fill="black"/>
<path d="M558.525 243.041L552.539 243.45L553.014 250.421L546.031 250.897L546.439 256.883L553.423 256.407L553.898 263.377L559.884 262.969L559.409 255.998L566.392 255.522L565.984 249.536L559 250.012L558.525 243.041Z" fill="black"/>
</svg>
