<svg width="20" height="20" viewBox="0 0 20 20" fill="none" xmlns="http://www.w3.org/2000/svg">
<g clip-path="url(#clip0_17_24)">
<path d="M17.6124 2.08438C17.4419 1.91391 17.2107 1.81821 16.9697 1.81821C16.9695 1.81821 16.9694 1.81821 16.9694 1.81821L14.2424 1.81899V0.909107C14.2424 0.640318 14.1235 0.385357 13.9176 0.212623C13.7117 0.0398887 13.44 -0.0328456 13.1752 0.0138341L2.87223 1.83309C2.43786 1.90981 2.12122 2.28727 2.12122 2.72829V17.2727C2.12122 17.7138 2.43793 18.0913 2.87231 18.168L13.1754 19.9861C13.228 19.9954 13.2808 20 13.3334 20C13.5454 20 13.7527 19.9257 13.9177 19.7873C14.1236 19.6146 14.2425 19.3596 14.2425 19.0909V18.1818H16.9697C17.4718 18.1818 17.8788 17.7748 17.8788 17.2727V2.72727C17.8788 2.48614 17.7829 2.25485 17.6124 2.08438ZM12.4242 2.72837V17.2727V18.0073L3.93938 16.51V3.49098L12.4242 1.99282V2.72837ZM16.0606 16.3636H14.2424V3.63715L16.0606 3.63661V16.3636Z" fill="#fff"/>
<path d="M10.34 9.96305C10.1709 9.79394 9.93636 9.69699 9.69694 9.69699C9.45753 9.69699 9.223 9.79394 9.0539 9.96305C8.8848 10.1321 8.78784 10.3667 8.78784 10.6061C8.78784 10.8455 8.8848 11.0794 9.0539 11.2491C9.22358 11.4182 9.45753 11.5152 9.69694 11.5152C9.93636 11.5152 10.1709 11.4182 10.34 11.2491C10.5091 11.0795 10.606 10.8455 10.606 10.6061C10.606 10.3667 10.5091 10.1321 10.34 9.96305Z" fill="#fff"/>
</g>
<defs>
<clipPath id="clip0_17_24">
<rect width="20" height="20" fill="white"/>
</clipPath>
</defs>
</svg>
