<svg width="42" height="42" viewBox="0 0 42 42" fill="none" xmlns="http://www.w3.org/2000/svg">
<g clip-path="url(#clip0_17_9)">
<path d="M15.1421 35.0627L13.9763 34.105C12.6145 32.9881 8.17369 28.7815 8.17369 21.5291C8.17369 13.5594 13.4261 8.40924 21.5567 8.40924C29.485 8.40924 34.4107 13.275 34.4107 21.1082C34.4107 28.4286 30.3006 32.6481 28.5326 34.1232L27.3899 35.0783V39.9734H42V33.5916H37.3045C39.6196 29.8739 40.7925 25.6811 40.7925 21.1082C40.7925 9.695 33.0623 2.02664 21.5576 2.02664C9.92212 2.02709 1.79598 10.047 1.79598 21.5287C1.79598 25.7602 2.99819 29.9961 5.20172 33.5916H0V39.9734H15.1425L15.1421 35.0627Z" fill="white"/>
<path d="M21.5 17.5001C25.6429 17.5001 36 7.37498 36 17.5C36 27.625 25.6429 17.5001 21.5 17.5001C17.3571 17.5001 7 27.625 7 17.5C7 7.37498 17.3571 17.5001 21.5 17.5001Z" fill="white"/>
</g>
<defs>
<clipPath id="clip0_17_9">
<rect width="42" height="42" fill="white"/>
</clipPath>
</defs>
</svg>
